<svg height="512" viewBox="0 0 128 128" width="512" xmlns="http://www.w3.org/2000/svg"><g><path d="m107.427 84.289h-30.155a182.929 182.929 0 0 1 -13.272 18.371 182.929 182.929 0 0 1 -13.272-18.371h-30.155l-14.267 37.405h115.388z" fill="#dfeef4"/><path d="m64 6.31a30.711 30.711 0 0 0 -30.71 30.71c-.18 29.3 30.71 65.64 30.71 65.64s30.89-36.34 30.71-65.64a30.711 30.711 0 0 0 -30.71-30.71zm0 43.74a13.03 13.03 0 1 1 13.03-13.03 13.025 13.025 0 0 1 -13.03 13.03z" fill="#f45858"/><path d="m110.74 92.96-57.58 20.48-22.44-29.15h20.01a182.752 182.752 0 0 0 13.27 18.37 182.752 182.752 0 0 0 13.27-18.37h30.16z" fill="#f2da30"/><path d="m29.96 121.694 56.996-20.274 15.604 20.274z" fill="#3ea2e5"/><g><path d="m88.737 21.946a1.75 1.75 0 0 0 2.987-1.824 32.661 32.661 0 0 0 -3.1-4.256 1.75 1.75 0 0 0 -2.654 2.281 29.264 29.264 0 0 1 2.767 3.799z"/><path d="m49.223 37.021a14.777 14.777 0 1 0 14.777-14.779 14.794 14.794 0 0 0 -14.777 14.779zm26.054 0a11.277 11.277 0 1 1 -11.277-11.279 11.289 11.289 0 0 1 11.277 11.279z"/><path d="m11.137 109.027a1.747 1.747 0 0 0 2.259-1.01l1.6-4.2a1.75 1.75 0 0 0 -3.269-1.248l-1.6 4.2a1.748 1.748 0 0 0 1.01 2.258z"/><path d="m123.328 121.069-14.266-37.4a1.751 1.751 0 0 0 -1.635-1.126h-27c.165-.269.329-.53.494-.8 10.389-17.2 15.617-32.246 15.542-44.714a32.464 32.464 0 0 0 -1.371-9.362 1.75 1.75 0 0 0 -3.352 1.008 28.973 28.973 0 0 1 1.223 8.364c.151 24.85-23.089 55.509-28.963 62.861-5.874-7.349-29.115-38-28.964-62.879a28.968 28.968 0 0 1 45.606-23.709 1.75 1.75 0 0 0 2.013-2.864 32.469 32.469 0 0 0 -51.119 26.562c-.075 12.479 5.153 27.527 15.542 44.725.165.273.329.534.494.8h-27a1.751 1.751 0 0 0 -1.635 1.126l-4.1 10.762a1.75 1.75 0 0 0 3.27 1.248l3.674-9.636h8.08l20.439 26.565-20.643 7.342h-20.81l1.618-4.245a1.75 1.75 0 0 0 -3.27-1.246l-2.523 6.619a1.748 1.748 0 0 0 1.635 2.373h115.386a1.748 1.748 0 0 0 1.635-2.374zm-89.053-35.031h15.49a185.716 185.716 0 0 0 12.9 17.759 1.75 1.75 0 0 0 2.666 0 185.716 185.716 0 0 0 12.9-17.759h27.987l2.24 5.875-54.689 19.454zm19.433 29.062h.01l32.627-11.6 12.655 16.443h-58.9zm49.713 4.84-13.609-17.679 19.9-7.077 9.443 24.759z"/></g></g></svg>